{
    "asset" : {
        "generator" : "Khronos glTF Blender I/O v1.6.16",
        "version" : "2.0"
    },
    "scene" : 0,
    "scenes" : [
        {
            "name" : "Scene",
            "nodes" : [
                0
            ]
        }
    ],
    "nodes" : [
        {
            "mesh" : 0,
            "name" : "Sphere.006",
            "rotation" : [
                -0.012603826820850372,
                0,
                0,
                0.999920666217804
            ],
            "translation" : [
                2.597355604171753,
                -0.08023957163095474,
                0.051693011075258255
            ]
        }
    ],
    "materials" : [
        {
            "doubleSided" : true,
            "name" : "grey",
            "pbrMetallicRoughness" : {
                "baseColorFactor" : [
                    0.026732562109827995,
                    0.03468005731701851,
                    0.04143692925572395,
                    1
                ],
                "metallicFactor" : 0.5084745287895203,
                "roughnessFactor" : 0.41101694107055664
            }
        },
        {
            "doubleSided" : true,
            "name" : "lipstick",
            "pbrMetallicRoughness" : {
                "baseColorFactor" : [
                    0.863157331943512,
                    0.004432533867657185,
                    0.04635993391275406,
                    1
                ],
                "metallicFactor" : 0.508474588394165,
                "roughnessFactor" : 0.47033897042274475
            }
        },
        {
            "doubleSided" : true,
            "name" : "hair",
            "pbrMetallicRoughness" : {
                "baseColorFactor" : [
                    0.854992687702179,
                    0.010960093699395657,
                    0.08650045096874237,
                    1
                ],
                "metallicFactor" : 0,
                "roughnessFactor" : 0.5
            }
        },
        {
            "doubleSided" : true,
            "name" : "Material.001",
            "pbrMetallicRoughness" : {
                "baseColorFactor" : [
                    0.9911022186279297,
                    0.5636935830116272,
                    0.08406972140073776,
                    1
                ],
                "metallicFactor" : 0.7372881174087524,
                "roughnessFactor" : 0.3474576473236084
            }
        },
        {
            "doubleSided" : true,
            "name" : "black",
            "pbrMetallicRoughness" : {
                "baseColorFactor" : [
                    0.0048254067078232765,
                    0.005766198970377445,
                    0.006540654227137566,
                    1
                ],
                "metallicFactor" : 0.5254237055778503,
                "roughnessFactor" : 0.3262711763381958
            }
        },
        {
            "alphaMode" : "BLEND",
            "doubleSided" : true,
            "name" : "eyes.2",
            "pbrMetallicRoughness" : {
                "baseColorTexture" : {
                    "index" : 0
                },
                "metallicFactor" : 0,
                "roughnessFactor" : 0.20000000298023224
            }
        },
        {
            "doubleSided" : true,
            "name" : "Material.002",
            "pbrMetallicRoughness" : {
                "baseColorFactor" : [
                    0.9911022186279297,
                    0.5636935830116272,
                    0.08406972140073776,
                    1
                ],
                "metallicFactor" : 0.7372881174087524,
                "roughnessFactor" : 0.3474576473236084
            }
        }
    ],
    "meshes" : [
        {
            "name" : "Sphere.006",
            "primitives" : [
                {
                    "attributes" : {
                        "POSITION" : 0,
                        "NORMAL" : 1,
                        "TEXCOORD_0" : 2
                    },
                    "indices" : 3,
                    "material" : 0
                },
                {
                    "attributes" : {
                        "POSITION" : 4,
                        "NORMAL" : 5,
                        "TEXCOORD_0" : 6
                    },
                    "indices" : 7,
                    "material" : 1
                },
                {
                    "attributes" : {
                        "POSITION" : 8,
                        "NORMAL" : 9,
                        "TEXCOORD_0" : 10
                    },
                    "indices" : 11,
                    "material" : 2
                },
                {
                    "attributes" : {
                        "POSITION" : 12,
                        "NORMAL" : 13,
                        "TEXCOORD_0" : 14
                    },
                    "indices" : 15,
                    "material" : 3
                },
                {
                    "attributes" : {
                        "POSITION" : 16,
                        "NORMAL" : 17,
                        "TEXCOORD_0" : 18
                    },
                    "indices" : 19,
                    "material" : 4
                },
                {
                    "attributes" : {
                        "POSITION" : 20,
                        "NORMAL" : 21,
                        "TEXCOORD_0" : 22
                    },
                    "indices" : 23,
                    "material" : 5
                },
                {
                    "attributes" : {
                        "POSITION" : 24,
                        "NORMAL" : 25,
                        "TEXCOORD_0" : 26
                    },
                    "indices" : 27,
                    "material" : 6
                }
            ]
        }
    ],
    "textures" : [
        {
            "sampler" : 0,
            "source" : 0
        }
    ],
    "images" : [
        {
            "bufferView" : 24,
            "mimeType" : "image/png",
            "name" : "eyes(diffuse).png-eyes(diffuse).png"
        }
    ],
    "accessors" : [
        {
            "bufferView" : 0,
            "componentType" : 5126,
            "count" : 15826,
            "max" : [
                0.3008725941181183,
                0.3249943256378174,
                0.4441535770893097
            ],
            "min" : [
                -0.29540497064590454,
                -0.5369731783866882,
                -0.3786725699901581
            ],
            "type" : "VEC3"
        },
        {
            "bufferView" : 1,
            "componentType" : 5126,
            "count" : 15826,
            "type" : "VEC3"
        },
        {
            "bufferView" : 2,
            "componentType" : 5126,
            "count" : 15826,
            "type" : "VEC2"
        },
        {
            "bufferView" : 3,
            "componentType" : 5123,
            "count" : 70263,
            "type" : "SCALAR"
        },
        {
            "bufferView" : 4,
            "componentType" : 5126,
            "count" : 12899,
            "max" : [
                0.3448808491230011,
                0.34886401891708374,
                0.4506363570690155
            ],
            "min" : [
                -0.3448809087276459,
                -0.5408368706703186,
                -0.37863537669181824
            ],
            "type" : "VEC3"
        },
        {
            "bufferView" : 5,
            "componentType" : 5126,
            "count" : 12899,
            "type" : "VEC3"
        },
        {
            "bufferView" : 6,
            "componentType" : 5126,
            "count" : 12899,
            "type" : "VEC2"
        },
        {
            "bufferView" : 7,
            "componentType" : 5123,
            "count" : 57987,
            "type" : "SCALAR"
        },
        {
            "bufferView" : 8,
            "componentType" : 5126,
            "count" : 28059,
            "max" : [
                0.4337831139564514,
                0.4522695243358612,
                0.06772463768720627
            ],
            "min" : [
                -0.4337831735610962,
                -0.5143266916275024,
                -0.5616056323051453
            ],
            "type" : "VEC3"
        },
        {
            "bufferView" : 9,
            "componentType" : 5126,
            "count" : 28059,
            "type" : "VEC3"
        },
        {
            "bufferView" : 10,
            "componentType" : 5126,
            "count" : 28059,
            "type" : "VEC2"
        },
        {
            "bufferView" : 11,
            "componentType" : 5123,
            "count" : 154656,
            "type" : "SCALAR"
        },
        {
            "bufferView" : 12,
            "componentType" : 5126,
            "count" : 4587,
            "max" : [
                0.18421991169452667,
                0.2973048985004425,
                0.3066971004009247
            ],
            "min" : [
                -0.18402662873268127,
                -0.4637945294380188,
                -0.143751323223114
            ],
            "type" : "VEC3"
        },
        {
            "bufferView" : 13,
            "componentType" : 5126,
            "count" : 4587,
            "type" : "VEC3"
        },
        {
            "bufferView" : 14,
            "componentType" : 5126,
            "count" : 4587,
            "type" : "VEC2"
        },
        {
            "bufferView" : 15,
            "componentType" : 5123,
            "count" : 24192,
            "type" : "SCALAR"
        },
        {
            "bufferView" : 16,
            "componentType" : 5126,
            "count" : 325,
            "max" : [
                0.12687525153160095,
                -0.003740794723853469,
                0.28921642899513245
            ],
            "min" : [
                -0.12687523663043976,
                -0.09331872314214706,
                0.24521876871585846
            ],
            "type" : "VEC3"
        },
        {
            "bufferView" : 17,
            "componentType" : 5126,
            "count" : 325,
            "type" : "VEC3"
        },
        {
            "bufferView" : 18,
            "componentType" : 5126,
            "count" : 325,
            "type" : "VEC2"
        },
        {
            "bufferView" : 19,
            "componentType" : 5123,
            "count" : 930,
            "type" : "SCALAR"
        },
        {
            "bufferView" : 20,
            "componentType" : 5126,
            "count" : 894,
            "max" : [
                0.19323718547821045,
                0.08936377614736557,
                0.22464048862457275
            ],
            "min" : [
                -0.19323718547821045,
                -0.02878623642027378,
                0.12542365491390228
            ],
            "type" : "VEC3"
        },
        {
            "bufferView" : 21,
            "componentType" : 5126,
            "count" : 894,
            "type" : "VEC3"
        },
        {
            "bufferView" : 22,
            "componentType" : 5126,
            "count" : 894,
            "type" : "VEC2"
        },
        {
            "bufferView" : 23,
            "componentType" : 5123,
            "count" : 5340,
            "type" : "SCALAR"
        },
        {
            "bufferView" : 25,
            "componentType" : 5126,
            "count" : 4744,
            "max" : [
                0.3042745590209961,
                -0.47652941942214966,
                0.0596308633685112
            ],
            "min" : [
                -0.298806756734848,
                -0.5334334373474121,
                -0.0018960414454340935
            ],
            "type" : "VEC3"
        },
        {
            "bufferView" : 26,
            "componentType" : 5126,
            "count" : 4744,
            "type" : "VEC3"
        },
        {
            "bufferView" : 27,
            "componentType" : 5126,
            "count" : 4744,
            "type" : "VEC2"
        },
        {
            "bufferView" : 28,
            "componentType" : 5123,
            "count" : 23040,
            "type" : "SCALAR"
        }
    ],
    "bufferViews" : [
        {
            "buffer" : 0,
            "byteLength" : 189912,
            "byteOffset" : 0
        },
        {
            "buffer" : 0,
            "byteLength" : 189912,
            "byteOffset" : 189912
        },
        {
            "buffer" : 0,
            "byteLength" : 126608,
            "byteOffset" : 379824
        },
        {
            "buffer" : 0,
            "byteLength" : 140526,
            "byteOffset" : 506432
        },
        {
            "buffer" : 0,
            "byteLength" : 154788,
            "byteOffset" : 646960
        },
        {
            "buffer" : 0,
            "byteLength" : 154788,
            "byteOffset" : 801748
        },
        {
            "buffer" : 0,
            "byteLength" : 103192,
            "byteOffset" : 956536
        },
        {
            "buffer" : 0,
            "byteLength" : 115974,
            "byteOffset" : 1059728
        },
        {
            "buffer" : 0,
            "byteLength" : 336708,
            "byteOffset" : 1175704
        },
        {
            "buffer" : 0,
            "byteLength" : 336708,
            "byteOffset" : 1512412
        },
        {
            "buffer" : 0,
            "byteLength" : 224472,
            "byteOffset" : 1849120
        },
        {
            "buffer" : 0,
            "byteLength" : 309312,
            "byteOffset" : 2073592
        },
        {
            "buffer" : 0,
            "byteLength" : 55044,
            "byteOffset" : 2382904
        },
        {
            "buffer" : 0,
            "byteLength" : 55044,
            "byteOffset" : 2437948
        },
        {
            "buffer" : 0,
            "byteLength" : 36696,
            "byteOffset" : 2492992
        },
        {
            "buffer" : 0,
            "byteLength" : 48384,
            "byteOffset" : 2529688
        },
        {
            "buffer" : 0,
            "byteLength" : 3900,
            "byteOffset" : 2578072
        },
        {
            "buffer" : 0,
            "byteLength" : 3900,
            "byteOffset" : 2581972
        },
        {
            "buffer" : 0,
            "byteLength" : 2600,
            "byteOffset" : 2585872
        },
        {
            "buffer" : 0,
            "byteLength" : 1860,
            "byteOffset" : 2588472
        },
        {
            "buffer" : 0,
            "byteLength" : 10728,
            "byteOffset" : 2590332
        },
        {
            "buffer" : 0,
            "byteLength" : 10728,
            "byteOffset" : 2601060
        },
        {
            "buffer" : 0,
            "byteLength" : 7152,
            "byteOffset" : 2611788
        },
        {
            "buffer" : 0,
            "byteLength" : 10680,
            "byteOffset" : 2618940
        },
        {
            "buffer" : 0,
            "byteLength" : 247633,
            "byteOffset" : 2629620
        },
        {
            "buffer" : 0,
            "byteLength" : 56928,
            "byteOffset" : 2877256
        },
        {
            "buffer" : 0,
            "byteLength" : 56928,
            "byteOffset" : 2934184
        },
        {
            "buffer" : 0,
            "byteLength" : 37952,
            "byteOffset" : 2991112
        },
        {
            "buffer" : 0,
            "byteLength" : 46080,
            "byteOffset" : 3029064
        }
    ],
    "samplers" : [
        {
            "magFilter" : 9729,
            "minFilter" : 9987
        }
    ],
    "buffers" : [
        {
            "byteLength" : 3075144,
            "uri" : "data:application/octet-stream;base64,"
        }
    ]
}
