{
    "asset" : {
        "generator" : "Khronos glTF Blender I/O v1.6.16",
        "version" : "2.0"
    },
    "scene" : 0,
    "scenes" : [
        {
            "name" : "Scene",
            "nodes" : [
                0,
                1
            ]
        }
    ],
    "nodes" : [
        {
            "mesh" : 0,
            "name" : "Cube.006",
            "translation" : [
                0,
                0.42153552174568176,
                0.000639498233795166
            ]
        },
        {
            "mesh" : 1,
            "name" : "Plane",
            "rotation" : [
                0.5681501626968384,
                0.5420935750007629,
                0.014786971732974052,
                0.6189679503440857
            ],
            "translation" : [
                -0.21812011301517487,
                -0.17115700244903564,
                0.17659048736095428
            ]
        }
    ],
    "materials" : [
        {
            "doubleSided" : true,
            "name" : "Material.002",
            "pbrMetallicRoughness" : {
                "baseColorFactor" : [
                    0.0048254067078232765,
                    0.005766198970377445,
                    0.006540654227137566,
                    1
                ],
                "metallicFactor" : 0.5211864113807678,
                "roughnessFactor" : 0.37288135290145874
            }
        },
        {
            "doubleSided" : true,
            "name" : "Material",
            "pbrMetallicRoughness" : {
                "baseColorFactor" : [
                    1,
                    0.39931783080101013,
                    0.6020523905754089,
                    1
                ],
                "metallicFactor" : 0.3432203531265259,
                "roughnessFactor" : 0.35762712359428406
            }
        },
        {
            "doubleSided" : true,
            "name" : "Material.001",
            "pbrMetallicRoughness" : {
                "baseColorFactor" : [
                    0.9911022186279297,
                    0.5636935830116272,
                    0.08406972140073776,
                    1
                ],
                "metallicFactor" : 0.7372881174087524,
                "roughnessFactor" : 0.3474576473236084
            }
        },
        {
            "doubleSided" : true,
            "name" : "red metal",
            "pbrMetallicRoughness" : {
                "baseColorFactor" : [
                    0.863157331943512,
                    0.011612245813012123,
                    0.08650045096874237,
                    1
                ],
                "metallicFactor" : 0.39406779408454895,
                "roughnessFactor" : 0.3686440587043762
            }
        },
        {
            "doubleSided" : true,
            "name" : "hair",
            "pbrMetallicRoughness" : {
                "baseColorFactor" : [
                    0.854992687702179,
                    0.010960093699395657,
                    0.08650045096874237,
                    1
                ],
                "metallicFactor" : 0,
                "roughnessFactor" : 0.5
            }
        },
        {
            "doubleSided" : true,
            "name" : "Material.004",
            "pbrMetallicRoughness" : {
                "baseColorFactor" : [
                    0.800000011920929,
                    0.800000011920929,
                    0.800000011920929,
                    1
                ],
                "metallicFactor" : 0,
                "roughnessFactor" : 0.16525423526763916
            }
        },
        {
            "doubleSided" : true,
            "name" : "lipstick",
            "pbrMetallicRoughness" : {
                "baseColorFactor" : [
                    0.863157331943512,
                    0.004432533867657185,
                    0.04635993391275406,
                    1
                ],
                "metallicFactor" : 0.8559321761131287,
                "roughnessFactor" : 0.3432203233242035
            }
        },
        {
            "doubleSided" : true,
            "name" : "teeth",
            "pbrMetallicRoughness" : {
                "baseColorFactor" : [
                    0.800000011920929,
                    0.800000011920929,
                    0.800000011920929,
                    1
                ],
                "metallicFactor" : 0,
                "roughnessFactor" : 0.5
            }
        },
        {
            "doubleSided" : true,
            "name" : "grey",
            "pbrMetallicRoughness" : {
                "baseColorFactor" : [
                    0.04071146622300148,
                    0.04071146622300148,
                    0.04071146622300148,
                    1
                ],
                "metallicFactor" : 0.5423728823661804,
                "roughnessFactor" : 0.5
            }
        }
    ],
    "meshes" : [
        {
            "name" : "Cube.007",
            "primitives" : [
                {
                    "attributes" : {
                        "POSITION" : 0,
                        "NORMAL" : 1,
                        "TEXCOORD_0" : 2,
                        "TEXCOORD_1" : 3
                    },
                    "indices" : 4,
                    "material" : 0
                },
                {
                    "attributes" : {
                        "POSITION" : 5,
                        "NORMAL" : 6,
                        "TEXCOORD_0" : 7,
                        "TEXCOORD_1" : 8
                    },
                    "indices" : 9,
                    "material" : 1
                },
                {
                    "attributes" : {
                        "POSITION" : 10,
                        "NORMAL" : 11,
                        "TEXCOORD_0" : 12,
                        "TEXCOORD_1" : 13
                    },
                    "indices" : 14,
                    "material" : 2
                },
                {
                    "attributes" : {
                        "POSITION" : 15,
                        "NORMAL" : 16,
                        "TEXCOORD_0" : 17,
                        "TEXCOORD_1" : 18
                    },
                    "indices" : 19,
                    "material" : 3
                },
                {
                    "attributes" : {
                        "POSITION" : 20,
                        "NORMAL" : 21,
                        "TEXCOORD_0" : 22,
                        "TEXCOORD_1" : 23
                    },
                    "indices" : 24,
                    "material" : 4
                },
                {
                    "attributes" : {
                        "POSITION" : 25,
                        "NORMAL" : 26,
                        "TEXCOORD_0" : 27,
                        "TEXCOORD_1" : 28
                    },
                    "indices" : 29,
                    "material" : 5
                },
                {
                    "attributes" : {
                        "POSITION" : 30,
                        "NORMAL" : 31,
                        "TEXCOORD_0" : 32,
                        "TEXCOORD_1" : 33
                    },
                    "indices" : 34,
                    "material" : 6
                },
                {
                    "attributes" : {
                        "POSITION" : 35,
                        "NORMAL" : 36,
                        "TEXCOORD_0" : 37,
                        "TEXCOORD_1" : 38
                    },
                    "indices" : 39,
                    "material" : 7
                }
            ]
        },
        {
            "name" : "Plane.011",
            "primitives" : [
                {
                    "attributes" : {
                        "POSITION" : 40,
                        "NORMAL" : 41,
                        "TEXCOORD_0" : 42
                    },
                    "indices" : 43,
                    "material" : 8
                },
                {
                    "attributes" : {
                        "POSITION" : 44,
                        "NORMAL" : 45,
                        "TEXCOORD_0" : 46
                    },
                    "indices" : 47,
                    "material" : 3
                }
            ]
        }
    ],
    "accessors" : [
        {
            "bufferView" : 0,
            "componentType" : 5126,
            "count" : 22194,
            "max" : [
                0.4835970401763916,
                0.7272948026657104,
                0.48770394921302795
            ],
            "min" : [
                -0.5028888583183289,
                -0.8809877634048462,
                -0.788222074508667
            ],
            "type" : "VEC3"
        },
        {
            "bufferView" : 1,
            "componentType" : 5126,
            "count" : 22194,
            "type" : "VEC3"
        },
        {
            "bufferView" : 2,
            "componentType" : 5126,
            "count" : 22194,
            "type" : "VEC2"
        },
        {
            "bufferView" : 3,
            "componentType" : 5126,
            "count" : 22194,
            "type" : "VEC2"
        },
        {
            "bufferView" : 4,
            "componentType" : 5123,
            "count" : 100002,
            "type" : "SCALAR"
        },
        {
            "bufferView" : 5,
            "componentType" : 5126,
            "count" : 6712,
            "max" : [
                0.3889363706111908,
                0.3398502469062805,
                0.30928003787994385
            ],
            "min" : [
                -0.3889363706111908,
                -0.7262266874313354,
                -0.4918888807296753
            ],
            "type" : "VEC3"
        },
        {
            "bufferView" : 6,
            "componentType" : 5126,
            "count" : 6712,
            "type" : "VEC3"
        },
        {
            "bufferView" : 7,
            "componentType" : 5126,
            "count" : 6712,
            "type" : "VEC2"
        },
        {
            "bufferView" : 8,
            "componentType" : 5126,
            "count" : 6712,
            "type" : "VEC2"
        },
        {
            "bufferView" : 9,
            "componentType" : 5123,
            "count" : 23874,
            "type" : "SCALAR"
        },
        {
            "bufferView" : 10,
            "componentType" : 5126,
            "count" : 6391,
            "max" : [
                0.39117687940597534,
                -0.23365004360675812,
                0.19577577710151672
            ],
            "min" : [
                -0.39117681980133057,
                -0.6403664946556091,
                -0.327455073595047
            ],
            "type" : "VEC3"
        },
        {
            "bufferView" : 11,
            "componentType" : 5126,
            "count" : 6391,
            "type" : "VEC3"
        },
        {
            "bufferView" : 12,
            "componentType" : 5126,
            "count" : 6391,
            "type" : "VEC2"
        },
        {
            "bufferView" : 13,
            "componentType" : 5126,
            "count" : 6391,
            "type" : "VEC2"
        },
        {
            "bufferView" : 14,
            "componentType" : 5123,
            "count" : 23616,
            "type" : "SCALAR"
        },
        {
            "bufferView" : 15,
            "componentType" : 5126,
            "count" : 4677,
            "max" : [
                0.33588704466819763,
                0.2588024437427521,
                0.21812652051448822
            ],
            "min" : [
                -0.33588704466819763,
                -0.7513781785964966,
                -0.36572542786598206
            ],
            "type" : "VEC3"
        },
        {
            "bufferView" : 16,
            "componentType" : 5126,
            "count" : 4677,
            "type" : "VEC3"
        },
        {
            "bufferView" : 17,
            "componentType" : 5126,
            "count" : 4677,
            "type" : "VEC2"
        },
        {
            "bufferView" : 18,
            "componentType" : 5126,
            "count" : 4677,
            "type" : "VEC2"
        },
        {
            "bufferView" : 19,
            "componentType" : 5123,
            "count" : 18408,
            "type" : "SCALAR"
        },
        {
            "bufferView" : 20,
            "componentType" : 5126,
            "count" : 10671,
            "max" : [
                0.598708987236023,
                0.6816604137420654,
                0.4758148193359375
            ],
            "min" : [
                -1.0460169315338135,
                -0.15074992179870605,
                -0.5074637532234192
            ],
            "type" : "VEC3"
        },
        {
            "bufferView" : 21,
            "componentType" : 5126,
            "count" : 10671,
            "type" : "VEC3"
        },
        {
            "bufferView" : 22,
            "componentType" : 5126,
            "count" : 10671,
            "type" : "VEC2"
        },
        {
            "bufferView" : 23,
            "componentType" : 5126,
            "count" : 10671,
            "type" : "VEC2"
        },
        {
            "bufferView" : 24,
            "componentType" : 5123,
            "count" : 49704,
            "type" : "SCALAR"
        },
        {
            "bufferView" : 25,
            "componentType" : 5126,
            "count" : 1748,
            "max" : [
                0.25551414489746094,
                0.008670836687088013,
                0.21386347711086273
            ],
            "min" : [
                -0.2555142343044281,
                -0.1081741601228714,
                0.16432811319828033
            ],
            "type" : "VEC3"
        },
        {
            "bufferView" : 26,
            "componentType" : 5126,
            "count" : 1748,
            "type" : "VEC3"
        },
        {
            "bufferView" : 27,
            "componentType" : 5126,
            "count" : 1748,
            "type" : "VEC2"
        },
        {
            "bufferView" : 28,
            "componentType" : 5126,
            "count" : 1748,
            "type" : "VEC2"
        },
        {
            "bufferView" : 29,
            "componentType" : 5123,
            "count" : 8544,
            "type" : "SCALAR"
        },
        {
            "bufferView" : 30,
            "componentType" : 5126,
            "count" : 1395,
            "max" : [
                0.3885727822780609,
                0.3385606110095978,
                0.24718789756298065
            ],
            "min" : [
                -0.3885727822780609,
                -0.8615704774856567,
                -0.4762181043624878
            ],
            "type" : "VEC3"
        },
        {
            "bufferView" : 31,
            "componentType" : 5126,
            "count" : 1395,
            "type" : "VEC3"
        },
        {
            "bufferView" : 32,
            "componentType" : 5126,
            "count" : 1395,
            "type" : "VEC2"
        },
        {
            "bufferView" : 33,
            "componentType" : 5126,
            "count" : 1395,
            "type" : "VEC2"
        },
        {
            "bufferView" : 34,
            "componentType" : 5123,
            "count" : 2970,
            "type" : "SCALAR"
        },
        {
            "bufferView" : 35,
            "componentType" : 5126,
            "count" : 144,
            "max" : [
                0.07008141279220581,
                -0.2646755576133728,
                0.0849592313170433
            ],
            "min" : [
                -0.07182512432336807,
                -0.2833716869354248,
                0.07058022916316986
            ],
            "type" : "VEC3"
        },
        {
            "bufferView" : 36,
            "componentType" : 5126,
            "count" : 144,
            "type" : "VEC3"
        },
        {
            "bufferView" : 37,
            "componentType" : 5126,
            "count" : 144,
            "type" : "VEC2"
        },
        {
            "bufferView" : 38,
            "componentType" : 5126,
            "count" : 144,
            "type" : "VEC2"
        },
        {
            "bufferView" : 39,
            "componentType" : 5123,
            "count" : 372,
            "type" : "SCALAR"
        },
        {
            "bufferView" : 40,
            "componentType" : 5126,
            "count" : 523,
            "max" : [
                0.2090708464384079,
                0.01474175974726677,
                0.2019137442111969
            ],
            "min" : [
                -0.21112796664237976,
                -0.026067495346069336,
                -0.9240319132804871
            ],
            "type" : "VEC3"
        },
        {
            "bufferView" : 41,
            "componentType" : 5126,
            "count" : 523,
            "type" : "VEC3"
        },
        {
            "bufferView" : 42,
            "componentType" : 5126,
            "count" : 523,
            "type" : "VEC2"
        },
        {
            "bufferView" : 43,
            "componentType" : 5123,
            "count" : 852,
            "type" : "SCALAR"
        },
        {
            "bufferView" : 44,
            "componentType" : 5126,
            "count" : 72,
            "max" : [
                0.06581532210111618,
                0.035741787403821945,
                0.17398372292518616
            ],
            "min" : [
                -0.05944886431097984,
                -0.006258225999772549,
                -0.4502893388271332
            ],
            "type" : "VEC3"
        },
        {
            "bufferView" : 45,
            "componentType" : 5126,
            "count" : 72,
            "type" : "VEC3"
        },
        {
            "bufferView" : 46,
            "componentType" : 5126,
            "count" : 72,
            "type" : "VEC2"
        },
        {
            "bufferView" : 47,
            "componentType" : 5123,
            "count" : 108,
            "type" : "SCALAR"
        }
    ],
    "bufferViews" : [
        {
            "buffer" : 0,
            "byteLength" : 266328,
            "byteOffset" : 0
        },
        {
            "buffer" : 0,
            "byteLength" : 266328,
            "byteOffset" : 266328
        },
        {
            "buffer" : 0,
            "byteLength" : 177552,
            "byteOffset" : 532656
        },
        {
            "buffer" : 0,
            "byteLength" : 177552,
            "byteOffset" : 710208
        },
        {
            "buffer" : 0,
            "byteLength" : 200004,
            "byteOffset" : 887760
        },
        {
            "buffer" : 0,
            "byteLength" : 80544,
            "byteOffset" : 1087764
        },
        {
            "buffer" : 0,
            "byteLength" : 80544,
            "byteOffset" : 1168308
        },
        {
            "buffer" : 0,
            "byteLength" : 53696,
            "byteOffset" : 1248852
        },
        {
            "buffer" : 0,
            "byteLength" : 53696,
            "byteOffset" : 1302548
        },
        {
            "buffer" : 0,
            "byteLength" : 47748,
            "byteOffset" : 1356244
        },
        {
            "buffer" : 0,
            "byteLength" : 76692,
            "byteOffset" : 1403992
        },
        {
            "buffer" : 0,
            "byteLength" : 76692,
            "byteOffset" : 1480684
        },
        {
            "buffer" : 0,
            "byteLength" : 51128,
            "byteOffset" : 1557376
        },
        {
            "buffer" : 0,
            "byteLength" : 51128,
            "byteOffset" : 1608504
        },
        {
            "buffer" : 0,
            "byteLength" : 47232,
            "byteOffset" : 1659632
        },
        {
            "buffer" : 0,
            "byteLength" : 56124,
            "byteOffset" : 1706864
        },
        {
            "buffer" : 0,
            "byteLength" : 56124,
            "byteOffset" : 1762988
        },
        {
            "buffer" : 0,
            "byteLength" : 37416,
            "byteOffset" : 1819112
        },
        {
            "buffer" : 0,
            "byteLength" : 37416,
            "byteOffset" : 1856528
        },
        {
            "buffer" : 0,
            "byteLength" : 36816,
            "byteOffset" : 1893944
        },
        {
            "buffer" : 0,
            "byteLength" : 128052,
            "byteOffset" : 1930760
        },
        {
            "buffer" : 0,
            "byteLength" : 128052,
            "byteOffset" : 2058812
        },
        {
            "buffer" : 0,
            "byteLength" : 85368,
            "byteOffset" : 2186864
        },
        {
            "buffer" : 0,
            "byteLength" : 85368,
            "byteOffset" : 2272232
        },
        {
            "buffer" : 0,
            "byteLength" : 99408,
            "byteOffset" : 2357600
        },
        {
            "buffer" : 0,
            "byteLength" : 20976,
            "byteOffset" : 2457008
        },
        {
            "buffer" : 0,
            "byteLength" : 20976,
            "byteOffset" : 2477984
        },
        {
            "buffer" : 0,
            "byteLength" : 13984,
            "byteOffset" : 2498960
        },
        {
            "buffer" : 0,
            "byteLength" : 13984,
            "byteOffset" : 2512944
        },
        {
            "buffer" : 0,
            "byteLength" : 17088,
            "byteOffset" : 2526928
        },
        {
            "buffer" : 0,
            "byteLength" : 16740,
            "byteOffset" : 2544016
        },
        {
            "buffer" : 0,
            "byteLength" : 16740,
            "byteOffset" : 2560756
        },
        {
            "buffer" : 0,
            "byteLength" : 11160,
            "byteOffset" : 2577496
        },
        {
            "buffer" : 0,
            "byteLength" : 11160,
            "byteOffset" : 2588656
        },
        {
            "buffer" : 0,
            "byteLength" : 5940,
            "byteOffset" : 2599816
        },
        {
            "buffer" : 0,
            "byteLength" : 1728,
            "byteOffset" : 2605756
        },
        {
            "buffer" : 0,
            "byteLength" : 1728,
            "byteOffset" : 2607484
        },
        {
            "buffer" : 0,
            "byteLength" : 1152,
            "byteOffset" : 2609212
        },
        {
            "buffer" : 0,
            "byteLength" : 1152,
            "byteOffset" : 2610364
        },
        {
            "buffer" : 0,
            "byteLength" : 744,
            "byteOffset" : 2611516
        },
        {
            "buffer" : 0,
            "byteLength" : 6276,
            "byteOffset" : 2612260
        },
        {
            "buffer" : 0,
            "byteLength" : 6276,
            "byteOffset" : 2618536
        },
        {
            "buffer" : 0,
            "byteLength" : 4184,
            "byteOffset" : 2624812
        },
        {
            "buffer" : 0,
            "byteLength" : 1704,
            "byteOffset" : 2628996
        },
        {
            "buffer" : 0,
            "byteLength" : 864,
            "byteOffset" : 2630700
        },
        {
            "buffer" : 0,
            "byteLength" : 864,
            "byteOffset" : 2631564
        },
        {
            "buffer" : 0,
            "byteLength" : 576,
            "byteOffset" : 2632428
        },
        {
            "buffer" : 0,
            "byteLength" : 216,
            "byteOffset" : 2633004
        }
    ],
    "buffers" : [
        {
            "byteLength" : 2633220,
            "uri" : "data:application/octet-stream;base64,"
        }
    ]
}
