{
    "asset" : {
        "generator" : "Khronos glTF Blender I/O v1.6.16",
        "version" : "2.0"
    },
    "scene" : 0,
    "scenes" : [
        {
            "name" : "Scene",
            "nodes" : [
                0,
                1
            ]
        }
    ],
    "nodes" : [
        {
            "mesh" : 0,
            "name" : "Cylinder",
            "rotation" : [
                0.20810703933238983,
                -0.05249641090631485,
                0.15361544489860535,
                0.9645402431488037
            ],
            "translation" : [
                -0.4920249283313751,
                0.32038697600364685,
                0.30331215262413025
            ]
        },
        {
            "mesh" : 1,
            "name" : "Cube",
            "translation" : [
                0,
                0.42153552174568176,
                0.000639498233795166
            ]
        }
    ],
    "materials" : [
        {
            "doubleSided" : true,
            "name" : "grey",
            "pbrMetallicRoughness" : {
                "baseColorFactor" : [
                    0.026732562109827995,
                    0.03468005731701851,
                    0.04143692925572395,
                    1
                ],
                "metallicFactor" : 0.5084745287895203,
                "roughnessFactor" : 0.41101694107055664
            }
        },
        {
            "doubleSided" : true,
            "name" : "lipstick",
            "pbrMetallicRoughness" : {
                "baseColorFactor" : [
                    0.863157331943512,
                    0.004432533867657185,
                    0.04635993391275406,
                    1
                ],
                "metallicFactor" : 0.508474588394165,
                "roughnessFactor" : 0.47033897042274475
            }
        },
        {
            "doubleSided" : true,
            "name" : "Material.004",
            "pbrMetallicRoughness" : {
                "baseColorFactor" : [
                    0.800000011920929,
                    0.800000011920929,
                    0.800000011920929,
                    1
                ],
                "metallicFactor" : 0,
                "roughnessFactor" : 0.16525423526763916
            }
        },
        {
            "doubleSided" : true,
            "name" : "Material",
            "pbrMetallicRoughness" : {
                "baseColorFactor" : [
                    1,
                    0.39931783080101013,
                    0.6020523905754089,
                    1
                ],
                "metallicFactor" : 0.3432203531265259,
                "roughnessFactor" : 0.35762712359428406
            }
        },
        {
            "doubleSided" : true,
            "name" : "hair",
            "pbrMetallicRoughness" : {
                "baseColorFactor" : [
                    0.854992687702179,
                    0.010960093699395657,
                    0.08650045096874237,
                    1
                ],
                "metallicFactor" : 0,
                "roughnessFactor" : 0.5
            }
        },
        {
            "doubleSided" : true,
            "name" : "Material.001",
            "pbrMetallicRoughness" : {
                "baseColorFactor" : [
                    0.9911022186279297,
                    0.5636935830116272,
                    0.08406972140073776,
                    1
                ],
                "metallicFactor" : 0.7372881174087524,
                "roughnessFactor" : 0.3474576473236084
            }
        }
    ],
    "meshes" : [
        {
            "name" : "Cylinder",
            "primitives" : [
                {
                    "attributes" : {
                        "POSITION" : 0,
                        "NORMAL" : 1,
                        "TEXCOORD_0" : 2
                    },
                    "indices" : 3,
                    "material" : 0
                },
                {
                    "attributes" : {
                        "POSITION" : 4,
                        "NORMAL" : 5,
                        "TEXCOORD_0" : 6
                    },
                    "indices" : 7,
                    "material" : 1
                }
            ]
        },
        {
            "name" : "Cube.001",
            "primitives" : [
                {
                    "attributes" : {
                        "POSITION" : 8,
                        "NORMAL" : 9,
                        "TEXCOORD_0" : 10
                    },
                    "indices" : 11,
                    "material" : 0
                },
                {
                    "attributes" : {
                        "POSITION" : 12,
                        "NORMAL" : 13,
                        "TEXCOORD_0" : 14
                    },
                    "indices" : 15,
                    "material" : 1
                },
                {
                    "attributes" : {
                        "POSITION" : 16,
                        "NORMAL" : 17,
                        "TEXCOORD_0" : 18
                    },
                    "indices" : 19,
                    "material" : 2
                },
                {
                    "attributes" : {
                        "POSITION" : 20,
                        "NORMAL" : 21,
                        "TEXCOORD_0" : 22
                    },
                    "indices" : 23,
                    "material" : 3
                },
                {
                    "attributes" : {
                        "POSITION" : 24,
                        "NORMAL" : 25,
                        "TEXCOORD_0" : 26
                    },
                    "indices" : 27,
                    "material" : 4
                },
                {
                    "attributes" : {
                        "POSITION" : 28,
                        "NORMAL" : 29,
                        "TEXCOORD_0" : 30
                    },
                    "indices" : 31,
                    "material" : 5
                }
            ]
        }
    ],
    "accessors" : [
        {
            "bufferView" : 0,
            "componentType" : 5126,
            "count" : 130,
            "max" : [
                0.028009647503495216,
                0.7367663979530334,
                0.028009651228785515
            ],
            "min" : [
                -0.028009647503495216,
                -0.7367663979530334,
                -0.028009651228785515
            ],
            "type" : "VEC3"
        },
        {
            "bufferView" : 1,
            "componentType" : 5126,
            "count" : 130,
            "type" : "VEC3"
        },
        {
            "bufferView" : 2,
            "componentType" : 5126,
            "count" : 130,
            "type" : "VEC2"
        },
        {
            "bufferView" : 3,
            "componentType" : 5123,
            "count" : 372,
            "type" : "SCALAR"
        },
        {
            "bufferView" : 4,
            "componentType" : 5126,
            "count" : 306,
            "max" : [
                0.3356652855873108,
                1.0468984842300415,
                0.028009651228785515
            ],
            "min" : [
                -0.47499197721481323,
                -0.7367663979530334,
                -0.028009651228785515
            ],
            "type" : "VEC3"
        },
        {
            "bufferView" : 5,
            "componentType" : 5126,
            "count" : 306,
            "type" : "VEC3"
        },
        {
            "bufferView" : 6,
            "componentType" : 5126,
            "count" : 306,
            "type" : "VEC2"
        },
        {
            "bufferView" : 7,
            "componentType" : 5123,
            "count" : 552,
            "type" : "SCALAR"
        },
        {
            "bufferView" : 8,
            "componentType" : 5126,
            "count" : 7049,
            "max" : [
                0.45195257663726807,
                1.1523425579071045,
                0.2497549206018448
            ],
            "min" : [
                -0.45195260643959045,
                -0.8589891195297241,
                -0.4934960603713989
            ],
            "type" : "VEC3"
        },
        {
            "bufferView" : 9,
            "componentType" : 5126,
            "count" : 7049,
            "type" : "VEC3"
        },
        {
            "bufferView" : 10,
            "componentType" : 5126,
            "count" : 7049,
            "type" : "VEC2"
        },
        {
            "bufferView" : 11,
            "componentType" : 5123,
            "count" : 31734,
            "type" : "SCALAR"
        },
        {
            "bufferView" : 12,
            "componentType" : 5126,
            "count" : 14497,
            "max" : [
                0.4256885051727295,
                1.1203086376190186,
                0.3090616464614868
            ],
            "min" : [
                -0.42811712622642517,
                -0.8859757781028748,
                -0.5026541352272034
            ],
            "type" : "VEC3"
        },
        {
            "bufferView" : 13,
            "componentType" : 5126,
            "count" : 14497,
            "type" : "VEC3"
        },
        {
            "bufferView" : 14,
            "componentType" : 5126,
            "count" : 14497,
            "type" : "VEC2"
        },
        {
            "bufferView" : 15,
            "componentType" : 5123,
            "count" : 72192,
            "type" : "SCALAR"
        },
        {
            "bufferView" : 16,
            "componentType" : 5126,
            "count" : 1922,
            "max" : [
                0.31155771017074585,
                0.029969342052936554,
                0.21743234992027283
            ],
            "min" : [
                -0.31155773997306824,
                -0.27243146300315857,
                0.0827372744679451
            ],
            "type" : "VEC3"
        },
        {
            "bufferView" : 17,
            "componentType" : 5126,
            "count" : 1922,
            "type" : "VEC3"
        },
        {
            "bufferView" : 18,
            "componentType" : 5126,
            "count" : 1922,
            "type" : "VEC2"
        },
        {
            "bufferView" : 19,
            "componentType" : 5123,
            "count" : 8916,
            "type" : "SCALAR"
        },
        {
            "bufferView" : 20,
            "componentType" : 5126,
            "count" : 12147,
            "max" : [
                0.4960067570209503,
                1.2193365097045898,
                0.28975188732147217
            ],
            "min" : [
                -0.4960068166255951,
                -0.7374209761619568,
                -0.5068587064743042
            ],
            "type" : "VEC3"
        },
        {
            "bufferView" : 21,
            "componentType" : 5126,
            "count" : 12147,
            "type" : "VEC3"
        },
        {
            "bufferView" : 22,
            "componentType" : 5126,
            "count" : 12147,
            "type" : "VEC2"
        },
        {
            "bufferView" : 23,
            "componentType" : 5123,
            "count" : 62004,
            "type" : "SCALAR"
        },
        {
            "bufferView" : 24,
            "componentType" : 5126,
            "count" : 23184,
            "max" : [
                0.9996817111968994,
                0.32212144136428833,
                0.1387738436460495
            ],
            "min" : [
                -0.9996817708015442,
                -0.8342705368995667,
                -0.32176849246025085
            ],
            "type" : "VEC3"
        },
        {
            "bufferView" : 25,
            "componentType" : 5126,
            "count" : 23184,
            "type" : "VEC3"
        },
        {
            "bufferView" : 26,
            "componentType" : 5126,
            "count" : 23184,
            "type" : "VEC2"
        },
        {
            "bufferView" : 27,
            "componentType" : 5123,
            "count" : 83160,
            "type" : "SCALAR"
        },
        {
            "bufferView" : 28,
            "componentType" : 5126,
            "count" : 2445,
            "max" : [
                0.4672870635986328,
                -0.22832664847373962,
                -0.10734224319458008
            ],
            "min" : [
                -0.4672871530056,
                -0.776936411857605,
                -0.33600059151649475
            ],
            "type" : "VEC3"
        },
        {
            "bufferView" : 29,
            "componentType" : 5126,
            "count" : 2445,
            "type" : "VEC3"
        },
        {
            "bufferView" : 30,
            "componentType" : 5126,
            "count" : 2445,
            "type" : "VEC2"
        },
        {
            "bufferView" : 31,
            "componentType" : 5123,
            "count" : 11904,
            "type" : "SCALAR"
        }
    ],
    "bufferViews" : [
        {
            "buffer" : 0,
            "byteLength" : 1560,
            "byteOffset" : 0
        },
        {
            "buffer" : 0,
            "byteLength" : 1560,
            "byteOffset" : 1560
        },
        {
            "buffer" : 0,
            "byteLength" : 1040,
            "byteOffset" : 3120
        },
        {
            "buffer" : 0,
            "byteLength" : 744,
            "byteOffset" : 4160
        },
        {
            "buffer" : 0,
            "byteLength" : 3672,
            "byteOffset" : 4904
        },
        {
            "buffer" : 0,
            "byteLength" : 3672,
            "byteOffset" : 8576
        },
        {
            "buffer" : 0,
            "byteLength" : 2448,
            "byteOffset" : 12248
        },
        {
            "buffer" : 0,
            "byteLength" : 1104,
            "byteOffset" : 14696
        },
        {
            "buffer" : 0,
            "byteLength" : 84588,
            "byteOffset" : 15800
        },
        {
            "buffer" : 0,
            "byteLength" : 84588,
            "byteOffset" : 100388
        },
        {
            "buffer" : 0,
            "byteLength" : 56392,
            "byteOffset" : 184976
        },
        {
            "buffer" : 0,
            "byteLength" : 63468,
            "byteOffset" : 241368
        },
        {
            "buffer" : 0,
            "byteLength" : 173964,
            "byteOffset" : 304836
        },
        {
            "buffer" : 0,
            "byteLength" : 173964,
            "byteOffset" : 478800
        },
        {
            "buffer" : 0,
            "byteLength" : 115976,
            "byteOffset" : 652764
        },
        {
            "buffer" : 0,
            "byteLength" : 144384,
            "byteOffset" : 768740
        },
        {
            "buffer" : 0,
            "byteLength" : 23064,
            "byteOffset" : 913124
        },
        {
            "buffer" : 0,
            "byteLength" : 23064,
            "byteOffset" : 936188
        },
        {
            "buffer" : 0,
            "byteLength" : 15376,
            "byteOffset" : 959252
        },
        {
            "buffer" : 0,
            "byteLength" : 17832,
            "byteOffset" : 974628
        },
        {
            "buffer" : 0,
            "byteLength" : 145764,
            "byteOffset" : 992460
        },
        {
            "buffer" : 0,
            "byteLength" : 145764,
            "byteOffset" : 1138224
        },
        {
            "buffer" : 0,
            "byteLength" : 97176,
            "byteOffset" : 1283988
        },
        {
            "buffer" : 0,
            "byteLength" : 124008,
            "byteOffset" : 1381164
        },
        {
            "buffer" : 0,
            "byteLength" : 278208,
            "byteOffset" : 1505172
        },
        {
            "buffer" : 0,
            "byteLength" : 278208,
            "byteOffset" : 1783380
        },
        {
            "buffer" : 0,
            "byteLength" : 185472,
            "byteOffset" : 2061588
        },
        {
            "buffer" : 0,
            "byteLength" : 166320,
            "byteOffset" : 2247060
        },
        {
            "buffer" : 0,
            "byteLength" : 29340,
            "byteOffset" : 2413380
        },
        {
            "buffer" : 0,
            "byteLength" : 29340,
            "byteOffset" : 2442720
        },
        {
            "buffer" : 0,
            "byteLength" : 19560,
            "byteOffset" : 2472060
        },
        {
            "buffer" : 0,
            "byteLength" : 23808,
            "byteOffset" : 2491620
        }
    ],
    "buffers" : [
        {
            "byteLength" : 2515428,
            "uri" : "data:application/octet-stream;base64,"
        }
    ]
}
