{
    "asset" : {
        "generator" : "Khronos glTF Blender I/O v1.6.16",
        "version" : "2.0"
    },
    "scene" : 0,
    "scenes" : [
        {
            "name" : "Scene",
            "nodes" : [
                0
            ]
        }
    ],
    "nodes" : [
        {
            "mesh" : 0,
            "name" : "Cube",
            "translation" : [
                0,
                0.39174169301986694,
                0.0006394983502104878
            ]
        }
    ],
    "materials" : [
        {
            "doubleSided" : true,
            "name" : "grey",
            "pbrMetallicRoughness" : {
                "baseColorFactor" : [
                    0.026732562109827995,
                    0.03468005731701851,
                    0.04143692925572395,
                    1
                ],
                "metallicFactor" : 0.4915253818035126,
                "roughnessFactor" : 0.5042372941970825
            }
        },
        {
            "doubleSided" : true,
            "name" : "Material.005",
            "pbrMetallicRoughness" : {
                "baseColorFactor" : [
                    0.9911022186279297,
                    0.5636935830116272,
                    0.08406972140073776,
                    1
                ],
                "metallicFactor" : 0.7372881174087524,
                "roughnessFactor" : 0.3474576473236084
            }
        },
        {
            "doubleSided" : true,
            "name" : "hair",
            "pbrMetallicRoughness" : {
                "baseColorFactor" : [
                    0.854992687702179,
                    0.010960093699395657,
                    0.08650045096874237,
                    1
                ],
                "metallicFactor" : 0,
                "roughnessFactor" : 0.5
            }
        },
        {
            "doubleSided" : true,
            "name" : "Material.003",
            "pbrMetallicRoughness" : {
                "baseColorFactor" : [
                    1,
                    0.39931783080101013,
                    0.6020523905754089,
                    1
                ],
                "metallicFactor" : 0.3432203531265259,
                "roughnessFactor" : 0.35762712359428406
            }
        },
        {
            "doubleSided" : true,
            "name" : "Material",
            "pbrMetallicRoughness" : {
                "baseColorFactor" : [
                    1,
                    0.39931783080101013,
                    0.6020523905754089,
                    1
                ],
                "metallicFactor" : 0.3432203531265259,
                "roughnessFactor" : 0.35762712359428406
            }
        },
        {
            "doubleSided" : true,
            "name" : "Material.004",
            "pbrMetallicRoughness" : {
                "baseColorFactor" : [
                    0.800000011920929,
                    0.800000011920929,
                    0.800000011920929,
                    1
                ],
                "metallicFactor" : 0,
                "roughnessFactor" : 0.16525423526763916
            }
        },
        {
            "doubleSided" : true,
            "name" : "black",
            "pbrMetallicRoughness" : {
                "baseColorFactor" : [
                    0.0048254067078232765,
                    0.005766198970377445,
                    0.006540654227137566,
                    1
                ],
                "metallicFactor" : 0.4915253818035126,
                "roughnessFactor" : 0.5042372941970825
            }
        },
        {
            "doubleSided" : true,
            "name" : "horn",
            "pbrMetallicRoughness" : {
                "baseColorFactor" : [
                    0.800000011920929,
                    0.800000011920929,
                    0.800000011920929,
                    1
                ],
                "roughnessFactor" : 0.3644067645072937
            }
        },
        {
            "doubleSided" : true,
            "name" : "eye",
            "pbrMetallicRoughness" : {
                "baseColorFactor" : [
                    0.863157331943512,
                    0.011612245813012123,
                    0.08865559101104736,
                    1
                ],
                "metallicFactor" : 0,
                "roughnessFactor" : 0
            }
        }
    ],
    "meshes" : [
        {
            "name" : "Cube.001",
            "primitives" : [
                {
                    "attributes" : {
                        "POSITION" : 0,
                        "NORMAL" : 1,
                        "TEXCOORD_0" : 2
                    },
                    "indices" : 3,
                    "material" : 0
                },
                {
                    "attributes" : {
                        "POSITION" : 4,
                        "NORMAL" : 5,
                        "TEXCOORD_0" : 6
                    },
                    "indices" : 7,
                    "material" : 1
                },
                {
                    "attributes" : {
                        "POSITION" : 8,
                        "NORMAL" : 9,
                        "TEXCOORD_0" : 10
                    },
                    "indices" : 11,
                    "material" : 2
                },
                {
                    "attributes" : {
                        "POSITION" : 12,
                        "NORMAL" : 13,
                        "TEXCOORD_0" : 14
                    },
                    "indices" : 15,
                    "material" : 3
                },
                {
                    "attributes" : {
                        "POSITION" : 16,
                        "NORMAL" : 17,
                        "TEXCOORD_0" : 18
                    },
                    "indices" : 19,
                    "material" : 4
                },
                {
                    "attributes" : {
                        "POSITION" : 20,
                        "NORMAL" : 21,
                        "TEXCOORD_0" : 22
                    },
                    "indices" : 23,
                    "material" : 5
                },
                {
                    "attributes" : {
                        "POSITION" : 24,
                        "NORMAL" : 25,
                        "TEXCOORD_0" : 26
                    },
                    "indices" : 27,
                    "material" : 6
                },
                {
                    "attributes" : {
                        "POSITION" : 28,
                        "NORMAL" : 29,
                        "TEXCOORD_0" : 30
                    },
                    "indices" : 31,
                    "material" : 7
                },
                {
                    "attributes" : {
                        "POSITION" : 32,
                        "NORMAL" : 33,
                        "TEXCOORD_0" : 34
                    },
                    "indices" : 35,
                    "material" : 8
                }
            ]
        }
    ],
    "accessors" : [
        {
            "bufferView" : 0,
            "componentType" : 5126,
            "count" : 23704,
            "max" : [
                0.478421688079834,
                0.4341698884963989,
                0.17390267550945282
            ],
            "min" : [
                -0.47842156887054443,
                -0.7696431875228882,
                -0.49975907802581787
            ],
            "type" : "VEC3"
        },
        {
            "bufferView" : 1,
            "componentType" : 5126,
            "count" : 23704,
            "type" : "VEC3"
        },
        {
            "bufferView" : 2,
            "componentType" : 5126,
            "count" : 23704,
            "type" : "VEC2"
        },
        {
            "bufferView" : 3,
            "componentType" : 5123,
            "count" : 115230,
            "type" : "SCALAR"
        },
        {
            "bufferView" : 4,
            "componentType" : 5126,
            "count" : 6307,
            "max" : [
                0.47959020733833313,
                0.35179856419563293,
                0.1866435557603836
            ],
            "min" : [
                -0.4795902967453003,
                -0.7335401177406311,
                -0.23519833385944366
            ],
            "type" : "VEC3"
        },
        {
            "bufferView" : 5,
            "componentType" : 5126,
            "count" : 6307,
            "type" : "VEC3"
        },
        {
            "bufferView" : 6,
            "componentType" : 5126,
            "count" : 6307,
            "type" : "VEC2"
        },
        {
            "bufferView" : 7,
            "componentType" : 5123,
            "count" : 32232,
            "type" : "SCALAR"
        },
        {
            "bufferView" : 8,
            "componentType" : 5126,
            "count" : 4810,
            "max" : [
                0.49253544211387634,
                0.4341698884963989,
                0.22661300003528595
            ],
            "min" : [
                -0.49253547191619873,
                -0.6961461901664734,
                -0.5457160472869873
            ],
            "type" : "VEC3"
        },
        {
            "bufferView" : 9,
            "componentType" : 5126,
            "count" : 4810,
            "type" : "VEC3"
        },
        {
            "bufferView" : 10,
            "componentType" : 5126,
            "count" : 4810,
            "type" : "VEC2"
        },
        {
            "bufferView" : 11,
            "componentType" : 5123,
            "count" : 16872,
            "type" : "SCALAR"
        },
        {
            "bufferView" : 12,
            "componentType" : 5126,
            "count" : 4127,
            "max" : [
                0.4622708857059479,
                -0.2114352583885193,
                0.27282047271728516
            ],
            "min" : [
                -0.4622708261013031,
                -0.7697641253471375,
                -0.40628373622894287
            ],
            "type" : "VEC3"
        },
        {
            "bufferView" : 13,
            "componentType" : 5126,
            "count" : 4127,
            "type" : "VEC3"
        },
        {
            "bufferView" : 14,
            "componentType" : 5126,
            "count" : 4127,
            "type" : "VEC2"
        },
        {
            "bufferView" : 15,
            "componentType" : 5123,
            "count" : 16122,
            "type" : "SCALAR"
        },
        {
            "bufferView" : 16,
            "componentType" : 5126,
            "count" : 7864,
            "max" : [
                0.44728294014930725,
                0.35338589549064636,
                0.08113332837820053
            ],
            "min" : [
                -0.44728294014930725,
                -0.755567729473114,
                -0.4379425644874573
            ],
            "type" : "VEC3"
        },
        {
            "bufferView" : 17,
            "componentType" : 5126,
            "count" : 7864,
            "type" : "VEC3"
        },
        {
            "bufferView" : 18,
            "componentType" : 5126,
            "count" : 7864,
            "type" : "VEC2"
        },
        {
            "bufferView" : 19,
            "componentType" : 5123,
            "count" : 38232,
            "type" : "SCALAR"
        },
        {
            "bufferView" : 20,
            "componentType" : 5126,
            "count" : 477,
            "max" : [
                0.3320576846599579,
                -0.0759822279214859,
                0.16954299807548523
            ],
            "min" : [
                -0.3320576250553131,
                -0.21882379055023193,
                0.017643222585320473
            ],
            "type" : "VEC3"
        },
        {
            "bufferView" : 21,
            "componentType" : 5126,
            "count" : 477,
            "type" : "VEC3"
        },
        {
            "bufferView" : 22,
            "componentType" : 5126,
            "count" : 477,
            "type" : "VEC2"
        },
        {
            "bufferView" : 23,
            "componentType" : 5123,
            "count" : 1920,
            "type" : "SCALAR"
        },
        {
            "bufferView" : 24,
            "componentType" : 5126,
            "count" : 2662,
            "max" : [
                0.3386728763580322,
                0.08873455971479416,
                0.17492099106311798
            ],
            "min" : [
                -0.3386854827404022,
                -0.2250886708498001,
                0.01958375610411167
            ],
            "type" : "VEC3"
        },
        {
            "bufferView" : 25,
            "componentType" : 5126,
            "count" : 2662,
            "type" : "VEC3"
        },
        {
            "bufferView" : 26,
            "componentType" : 5126,
            "count" : 2662,
            "type" : "VEC2"
        },
        {
            "bufferView" : 27,
            "componentType" : 5123,
            "count" : 4560,
            "type" : "SCALAR"
        },
        {
            "bufferView" : 28,
            "componentType" : 5126,
            "count" : 3180,
            "max" : [
                0.5041553378105164,
                0.46907883882522583,
                0.0029593463987112045
            ],
            "min" : [
                -0.5995713472366333,
                -0.719666063785553,
                -0.21167448163032532
            ],
            "type" : "VEC3"
        },
        {
            "bufferView" : 29,
            "componentType" : 5126,
            "count" : 3180,
            "type" : "VEC3"
        },
        {
            "bufferView" : 30,
            "componentType" : 5126,
            "count" : 3180,
            "type" : "VEC2"
        },
        {
            "bufferView" : 31,
            "componentType" : 5123,
            "count" : 11448,
            "type" : "SCALAR"
        },
        {
            "bufferView" : 32,
            "componentType" : 5126,
            "count" : 462,
            "max" : [
                0.23613908886909485,
                0.11665720492601395,
                0.07926761358976364
            ],
            "min" : [
                -0.23613885045051575,
                -0.008999074809253216,
                0.012843572534620762
            ],
            "type" : "VEC3"
        },
        {
            "bufferView" : 33,
            "componentType" : 5126,
            "count" : 462,
            "type" : "VEC3"
        },
        {
            "bufferView" : 34,
            "componentType" : 5126,
            "count" : 462,
            "type" : "VEC2"
        },
        {
            "bufferView" : 35,
            "componentType" : 5123,
            "count" : 2304,
            "type" : "SCALAR"
        }
    ],
    "bufferViews" : [
        {
            "buffer" : 0,
            "byteLength" : 284448,
            "byteOffset" : 0
        },
        {
            "buffer" : 0,
            "byteLength" : 284448,
            "byteOffset" : 284448
        },
        {
            "buffer" : 0,
            "byteLength" : 189632,
            "byteOffset" : 568896
        },
        {
            "buffer" : 0,
            "byteLength" : 230460,
            "byteOffset" : 758528
        },
        {
            "buffer" : 0,
            "byteLength" : 75684,
            "byteOffset" : 988988
        },
        {
            "buffer" : 0,
            "byteLength" : 75684,
            "byteOffset" : 1064672
        },
        {
            "buffer" : 0,
            "byteLength" : 50456,
            "byteOffset" : 1140356
        },
        {
            "buffer" : 0,
            "byteLength" : 64464,
            "byteOffset" : 1190812
        },
        {
            "buffer" : 0,
            "byteLength" : 57720,
            "byteOffset" : 1255276
        },
        {
            "buffer" : 0,
            "byteLength" : 57720,
            "byteOffset" : 1312996
        },
        {
            "buffer" : 0,
            "byteLength" : 38480,
            "byteOffset" : 1370716
        },
        {
            "buffer" : 0,
            "byteLength" : 33744,
            "byteOffset" : 1409196
        },
        {
            "buffer" : 0,
            "byteLength" : 49524,
            "byteOffset" : 1442940
        },
        {
            "buffer" : 0,
            "byteLength" : 49524,
            "byteOffset" : 1492464
        },
        {
            "buffer" : 0,
            "byteLength" : 33016,
            "byteOffset" : 1541988
        },
        {
            "buffer" : 0,
            "byteLength" : 32244,
            "byteOffset" : 1575004
        },
        {
            "buffer" : 0,
            "byteLength" : 94368,
            "byteOffset" : 1607248
        },
        {
            "buffer" : 0,
            "byteLength" : 94368,
            "byteOffset" : 1701616
        },
        {
            "buffer" : 0,
            "byteLength" : 62912,
            "byteOffset" : 1795984
        },
        {
            "buffer" : 0,
            "byteLength" : 76464,
            "byteOffset" : 1858896
        },
        {
            "buffer" : 0,
            "byteLength" : 5724,
            "byteOffset" : 1935360
        },
        {
            "buffer" : 0,
            "byteLength" : 5724,
            "byteOffset" : 1941084
        },
        {
            "buffer" : 0,
            "byteLength" : 3816,
            "byteOffset" : 1946808
        },
        {
            "buffer" : 0,
            "byteLength" : 3840,
            "byteOffset" : 1950624
        },
        {
            "buffer" : 0,
            "byteLength" : 31944,
            "byteOffset" : 1954464
        },
        {
            "buffer" : 0,
            "byteLength" : 31944,
            "byteOffset" : 1986408
        },
        {
            "buffer" : 0,
            "byteLength" : 21296,
            "byteOffset" : 2018352
        },
        {
            "buffer" : 0,
            "byteLength" : 9120,
            "byteOffset" : 2039648
        },
        {
            "buffer" : 0,
            "byteLength" : 38160,
            "byteOffset" : 2048768
        },
        {
            "buffer" : 0,
            "byteLength" : 38160,
            "byteOffset" : 2086928
        },
        {
            "buffer" : 0,
            "byteLength" : 25440,
            "byteOffset" : 2125088
        },
        {
            "buffer" : 0,
            "byteLength" : 22896,
            "byteOffset" : 2150528
        },
        {
            "buffer" : 0,
            "byteLength" : 5544,
            "byteOffset" : 2173424
        },
        {
            "buffer" : 0,
            "byteLength" : 5544,
            "byteOffset" : 2178968
        },
        {
            "buffer" : 0,
            "byteLength" : 3696,
            "byteOffset" : 2184512
        },
        {
            "buffer" : 0,
            "byteLength" : 4608,
            "byteOffset" : 2188208
        }
    ],
    "buffers" : [
        {
            "byteLength" : 2192816,
            "uri" : "data:application/octet-stream;base64,"
        }
    ]
}
